<svg width="18" height="24" fill="none" xmlns="http://www.w3.org/2000/svg"><path d="M10.624 4.727a7.568 7.568 0 0 1 2.606.464 7.675 7.675 0 0 1 3.779 3.034 8.883 8.883 0 0 0-4.522-6.652A8.658 8.658 0 0 0 8.3.5c-1.279 0-3.266.272-4.362.768C2.298 1.868 1.224 2.844 0 3.95l5.073 3.206a7.537 7.537 0 0 1 5.551-2.428Z" fill="#003EDC"/><path d="M15.967 11.955h-.004c-.153.013-.307.023-.458.03h-.038a7.57 7.57 0 0 1-5.92-2.617 7.659 7.659 0 0 1-1.612-3.005 7.687 7.687 0 0 0-4.154 5.187l-.154.875-.612 3.508-.144.817.532-.46.894-.778-.144-1.958a3.775 3.775 0 0 1-.048-.607v-.02l5.186.118c-.843.389-2.33 1.698-2.91 2.314l-.007.01c-.131.14-.256.282-.378.431l-.442 1.796-.052.208h.004l-.125.505-.023.094L4.105 23.5l4.727-2.558.045-.237.18-.953c.019-.09.038-.169.057-.237a8.507 8.507 0 0 1 .272-.84c1.08-2.842 2.437-3.49 2.347-3.49.07-.06.147-.114.224-.166.657-.464 1.516-.798 2.446-.927a4.02 4.02 0 0 1 .467-.04l.046-.002.855-.963 1.131-1.277-.06.012a7.404 7.404 0 0 1-.875.133Z" fill="#003EDC"/></svg>